<svg xmlns="http://www.w3.org/2000/svg" width="38.574" height="42.575" viewBox="0 0 38.574 42.575"><defs><style>.a{fill:#6a2a83;}</style></defs><g transform="translate(-301.776 -1063.61)"><path class="a" d="M302.518,1091.593l13.15,13.15a.838.838,0,0,0,.433.232l5.976,1.2a.909.909,0,0,0,.164.015.854.854,0,0,0,.6-.247.844.844,0,0,0,.231-.762l-1.2-5.977a.829.829,0,0,0-.232-.432l-13.149-13.15a2.542,2.542,0,0,0-3.586,0l-2.391,2.391A2.537,2.537,0,0,0,302.518,1091.593Zm1.194-2.392,2.39-2.39a.846.846,0,0,1,1.2,0l12.968,12.968.9,4.482-4.482-.9L303.712,1090.4A.845.845,0,0,1,303.712,1089.2Z"/><path class="a" d="M323.443,1098.268a.846.846,0,0,0,.846.845h11.834a4.231,4.231,0,0,0,4.227-4.226v-21.979a4.231,4.231,0,0,0-4.227-4.226h-2.536v-.846a.846.846,0,0,0-.845-.845h-2.621a4.228,4.228,0,0,0-8.284,0h-2.62a.846.846,0,0,0-.846.845v.846h-2.536a4.23,4.23,0,0,0-4.226,4.226v10.144a.845.845,0,0,0,1.69,0v-10.144a2.539,2.539,0,0,1,2.536-2.536h2.536v.846a2.539,2.539,0,0,0,2.536,2.536h10.144a2.539,2.539,0,0,0,2.536-2.536v-.846h2.536a2.539,2.539,0,0,1,2.536,2.536v21.979a2.539,2.539,0,0,1-2.536,2.536H324.289A.846.846,0,0,0,323.443,1098.268Zm8.453-27.05a.848.848,0,0,1-.845.845H320.907a.848.848,0,0,1-.845-.845v-2.536H322.6a.846.846,0,0,0,.845-.846,2.536,2.536,0,0,1,5.072,0,.846.846,0,0,0,.845.846H331.9Z"/><path class="a" d="M317.526,1077.135h16.906a.846.846,0,1,1,0,1.691H317.526a.846.846,0,0,1,0-1.691Z"/><path class="a" d="M317.526,1082.207h16.906a.845.845,0,1,1,0,1.69H317.526a.845.845,0,1,1,0-1.69Z"/><path class="a" d="M317.526,1087.279h16.906a.845.845,0,1,1,0,1.69H317.526a.845.845,0,1,1,0-1.69Z"/></g></svg>