<svg xmlns="http://www.w3.org/2000/svg" width="36.994" height="36.997" viewBox="0 0 36.994 36.997"><defs><style>.a{fill:#6a2a83;}</style></defs><g transform="translate(-302.566 -1293.186)"><path class="a" d="M334.213,1328.738a3.9,3.9,0,1,1,3.9-3.9,3.906,3.906,0,0,1-3.9,3.9Zm-17.052-17.052a3.9,3.9,0,1,1,3.9,3.9,3.906,3.906,0,0,1-3.9-3.9Zm3.9-10.577a1.011,1.011,0,1,1-1.012,1.011,1.011,1.011,0,0,1,1.012-1.011Zm14.306.9a2.745,2.745,0,1,1-2.745,2.745,2.748,2.748,0,0,1,2.745-2.745Zm-1.156,17.486a5.316,5.316,0,0,0-3.233,1.092l-5.662-5.663a5.328,5.328,0,0,0,.826-4.894l5.829-2.826a4.182,4.182,0,1,0-.632-1.3l-5.828,2.825a5.355,5.355,0,0,0-3.727-2.336v-1.921a2.457,2.457,0,1,0-1.446,0v1.921a5.323,5.323,0,0,0-2.51,1.042l-4.671-4.671a5.942,5.942,0,0,0,1.048-5.207.722.722,0,1,0-1.394.379,4.5,4.5,0,0,1-1.141,4.335l-.015.013-.011.013a4.48,4.48,0,1,1-2.126-7.54.723.723,0,0,0,.33-1.407,5.924,5.924,0,1,0,2.287,10.436l4.671,4.671a5.343,5.343,0,0,0,7.488,7.488l5.662,5.662a5.345,5.345,0,1,0,4.255-2.113Z"/><path class="a" d="M311.678,1295.966a.723.723,0,1,0,1.027-1.017l-.026-.026a.722.722,0,1,0-1.019,1.024l.018.019Z"/><path class="a" d="M306.757,1328.738a2.746,2.746,0,1,1,2.745-2.746,2.749,2.749,0,0,1-2.745,2.746Zm6.768-10.536-4.362,4.362a4.2,4.2,0,1,0,1.021,1.022l4.363-4.363a.722.722,0,0,0-1.022-1.021Z"/><path class="a" d="M315.752,1316.274a.724.724,0,1,0,.511.212.727.727,0,0,0-.511-.212Z"/></g></svg>