<svg xmlns="http://www.w3.org/2000/svg" width="37.352" height="38.38" viewBox="0 0 37.352 38.38"><defs><style>.a{fill:#6a2a83;}</style></defs><g transform="translate(-302.387 -1206.06)"><path class="a" d="M336.817,1210.892h-.8a4.9,4.9,0,0,0-1.416-3.415,4.7,4.7,0,0,0-3.359-1.417h-20.58a4.79,4.79,0,0,0-4.773,4.664h-1.341a2.164,2.164,0,0,0,0,4.329h1.339v3.912h-1.339a2.164,2.164,0,0,0,0,4.329h1.339v3.912h-1.339a2.164,2.164,0,0,0,0,4.329h1.339v3.912h-1.339a2.164,2.164,0,0,0,0,4.329h1.341a4.79,4.79,0,0,0,4.773,4.664h20.58a4.694,4.694,0,0,0,3.355-1.413,4.931,4.931,0,0,0,1.42-3.43h.8a2.925,2.925,0,0,0,2.922-2.922v-22.861A2.925,2.925,0,0,0,336.817,1210.892Zm-1.421,26.113a.6.6,0,0,0-.624.607v2.052a3.531,3.531,0,0,1-3.527,3.528H313.891v-28.763a.624.624,0,0,0-1.248,0v28.763h-1.978a3.541,3.541,0,0,1-3.525-3.416h1.36a2.164,2.164,0,0,0,0-4.329h-1.363v-3.912H308.5a2.164,2.164,0,0,0,0-4.329h-1.363v-3.912H308.5a2.164,2.164,0,0,0,0-4.329h-1.363v-3.912H308.5a2.164,2.164,0,0,0,0-4.329h-1.36a3.542,3.542,0,0,1,3.525-3.417h1.978v4.208a.624.624,0,0,0,1.248,0v-4.208h17.354a3.532,3.532,0,0,1,3.527,3.529V1234.7a.624.624,0,0,0,1.248,0v-1.214h.8a2.892,2.892,0,0,0,1.675-.529v3.714a1.676,1.676,0,0,1-1.675,1.675h-.8v-.738A.6.6,0,0,0,335.4,1237.005Zm-26.9-23.2h-3.949a.917.917,0,0,1,0-1.834H308.5a.917.917,0,0,1,0,1.834Zm0,8.242h-3.949a.917.917,0,0,1,0-1.835H308.5a.917.917,0,0,1,0,1.835Zm0,8.241h-3.949a.917.917,0,0,1,0-1.835H308.5a.917.917,0,0,1,0,1.835Zm.917,7.324a.918.918,0,0,1-.917.917h-3.949a.918.918,0,0,1,0-1.835H308.5A.918.918,0,0,1,309.417,1237.612Zm27.4-5.369h-.8v-4.861h.8a2.885,2.885,0,0,0,1.675-.529v3.715A1.677,1.677,0,0,1,336.817,1232.243Zm0-6.108h-.8v-4.962h.8a2.892,2.892,0,0,0,1.675-.529v3.816A1.676,1.676,0,0,1,336.817,1226.135Zm0-6.209h-.8v-7.787h.8a1.677,1.677,0,0,1,1.675,1.675v4.438A1.676,1.676,0,0,1,336.817,1219.926Z"/><path class="a" d="M327.116,1225.565a4.658,4.658,0,1,0-6.142,0,7.087,7.087,0,0,0-3.988,6.355.624.624,0,0,0,1.247,0,5.825,5.825,0,0,1,4.265-5.6.628.628,0,0,0,.1-1.166,3.41,3.41,0,1,1,2.9,0,.628.628,0,0,0,.1,1.166,5.825,5.825,0,0,1,4.265,5.6.624.624,0,0,0,1.247,0A7.086,7.086,0,0,0,327.116,1225.565Z"/></g></svg>