<svg xmlns="http://www.w3.org/2000/svg" width="46.129" height="38.109" viewBox="0 0 46.129 38.109"><defs><style>.a{fill:#fff;}</style></defs><g transform="translate(-271.817 -1846.935)"><path class="a" d="M317,1876.008,299.911,1849.6a5.846,5.846,0,0,0-4.941-2.662v.43l-.109-.429a5.7,5.7,0,0,0-5.011,2.66l-17.089,26.412a5.855,5.855,0,0,0,4.313,9,6.008,6.008,0,0,0,.616.032,5.809,5.809,0,0,0,4.89-2.658l12.3-15.532,12.289,15.514a5.854,5.854,0,0,0,9.83-6.36Zm-35.131,5.894a5.032,5.032,0,0,1-4.706,2.254,4.993,4.993,0,0,1-3.679-7.681l1.91-2.953c3.965-5.332,8.622-8.642,12.778-9.083a8.07,8.07,0,0,1,6.112,1.782l-12.275,15.485Zm34.719-.555a5,5,0,0,1-8.72.521l-12.65-15.974c-.012-.014-.029-.02-.042-.033s-.005-.016-.012-.023a9.035,9.035,0,0,0-7.083-2.254c-3.128.332-6.4,2.083-9.512,5.031l12-18.552a4.8,4.8,0,0,1,4.158-2.269h.239a4.992,4.992,0,0,1,4.219,2.269l17.089,26.411A4.958,4.958,0,0,1,316.588,1881.347Z"/><path class="a" d="M294.8,1878.122a3.461,3.461,0,1,0,3.46,3.461A3.464,3.464,0,0,0,294.8,1878.122Zm0,6.062a2.6,2.6,0,1,1,2.6-2.6A2.6,2.6,0,0,1,294.8,1884.184Z"/></g></svg>