<svg xmlns="http://www.w3.org/2000/svg" width="157.736" height="25.782" viewBox="0 0 157.736 25.782"><defs><style>.a{fill:#939393;}</style></defs><g transform="translate(-237.922 -3759.302)"><path class="a" d="M291.085,3778.9c0,1.318.01,2.636,0,3.954a2.267,2.267,0,0,1-4.441.607,3.385,3.385,0,0,1-.09-.9c-.007-2.251,0-4.5-.007-6.753a4.923,4.923,0,0,0-1.253-3.455,4.71,4.71,0,0,0-4.9-1.5,4.65,4.65,0,0,0-3.532,3.565,4.871,4.871,0,0,0,4.231,6.047c.243.02.484.048.727.069a2.27,2.27,0,0,1-.147,4.532,9.475,9.475,0,1,1,9.168-11.619,11.878,11.878,0,0,1,.241,2.1C291.114,3776.665,291.085,3777.781,291.085,3778.9Zm81.44-3.346a11.876,11.876,0,0,0-.241-2.1,9.474,9.474,0,1,0-9.168,11.619,2.27,2.27,0,0,0,.147-4.532c-.242-.021-.484-.049-.726-.069a4.87,4.87,0,0,1-4.231-6.047,4.647,4.647,0,0,1,3.532-3.565,4.708,4.708,0,0,1,4.9,1.5,4.919,4.919,0,0,1,1.254,3.455c.005,2.251,0,4.5.006,6.753a3.386,3.386,0,0,0,.09.9,2.268,2.268,0,0,0,4.442-.607c.014-1.318,0-2.636,0-3.954C372.536,3777.781,372.564,3776.665,372.525,3775.551Zm-20.582-2.191a9.451,9.451,0,0,0-16.326-3.988,9.47,9.47,0,0,0-16.611,6.084q0,1.734,0,3.468c0,1.318-.011,2.637,0,3.955A2.232,2.232,0,0,0,320.7,3785a2.278,2.278,0,0,0,2.455-.909,2.52,2.52,0,0,0,.4-1.5q-.008-3.285,0-6.57a7.8,7.8,0,0,1,.1-1.393,5.007,5.007,0,0,1,4.518-3.934,4.91,4.91,0,0,1,5.05,3.7c.03.133.05.268.069.4-.017.219-.027.438-.027.659q0,1.734,0,3.468c0,1.318-.011,2.637,0,3.955a2.233,2.233,0,0,0,1.694,2.119,2.067,2.067,0,0,0,.644.076h0l.073,0a2.279,2.279,0,0,0,1.728-.8,2.407,2.407,0,0,0,.563-1.627c0-2.353.023-4.706-.012-7.058-.005-.292-.026-.586-.057-.879,0-.026.007-.052.011-.077a5.009,5.009,0,0,1,4.519-3.934,4.91,4.91,0,0,1,5.05,3.7,9.553,9.553,0,0,1,.147,1.99c.017,2.109,0,4.218.01,6.327a2.3,2.3,0,0,0,1.556,2.239,2.261,2.261,0,0,0,2.475-.683,2.4,2.4,0,0,0,.562-1.627c0-2.353.024-4.706-.012-7.058A10.268,10.268,0,0,0,351.943,3773.36Zm43.29,8.151a2.259,2.259,0,0,0-1.913-.987,4.915,4.915,0,0,1-4.839-5.156c.082-1.517.014-3.041.017-4.562,0-.175.024-.349.04-.566h.639c1.338,0,2.676.007,4.014,0a3.064,3.064,0,0,0,.9-.112,2.267,2.267,0,0,0-.736-4.42c-1.4-.009-2.8,0-4.2,0H388.5V3765c0-1.136.028-2.272-.009-3.407a2.29,2.29,0,0,0-3.789-1.71,2.463,2.463,0,0,0-.8,2.019c.007,4.522,0,9.045.015,13.567a11.767,11.767,0,0,0,.2,2.049,9.4,9.4,0,0,0,9.345,7.554,2.269,2.269,0,0,0,1.77-3.556Zm-81.182-15.024a2.268,2.268,0,0,0-1.05,2.063c.015,2.353.005,4.706.005,7.059h0q0,2.252,0,4.5c0,.973-.034,1.949.022,2.919a2.229,2.229,0,0,0,2.891,1.952,2.253,2.253,0,0,0,1.633-2.231q.008-7.15,0-14.3c0-.061,0-.122,0-.182A2.284,2.284,0,0,0,314.051,3766.487Zm-2.806,6.873a9.471,9.471,0,0,0-18.675,2.1q0,1.734,0,3.468c0,1.318-.011,2.637,0,3.955a2.231,2.231,0,0,0,1.694,2.119,2.279,2.279,0,0,0,2.455-.909,2.52,2.52,0,0,0,.4-1.5q-.007-3.285,0-6.57a7.8,7.8,0,0,1,.1-1.393,5.007,5.007,0,0,1,4.518-3.934,4.91,4.91,0,0,1,5.05,3.7,9.485,9.485,0,0,1,.147,1.99c.017,2.109,0,4.218.01,6.327a2.3,2.3,0,0,0,1.556,2.239,2.26,2.26,0,0,0,2.475-.683,2.406,2.406,0,0,0,.563-1.627c0-2.353.023-4.706-.012-7.058A10.267,10.267,0,0,0,311.245,3773.36Zm4.031-14.057a2.28,2.28,0,1,0,2.279,2.28A2.279,2.279,0,0,0,315.276,3759.3Zm62.947,14.61a2.1,2.1,0,1,0,2.1,2.1A2.1,2.1,0,0,0,378.223,3773.913Zm-121.408-12.9a3.749,3.749,0,0,0-3.169-1.706h-.081a3.613,3.613,0,0,0-3.212,1.705l-11.825,18.276a3.753,3.753,0,0,0,6.3,4.079l.089-.125,8.665-10.929,8.753,11.053a3.754,3.754,0,1,0,6.3-4.078Z"/><circle class="a" cx="2.097" cy="2.097" r="2.097" transform="translate(251.428 3780.884)"/><path class="a" d="M239.856,3777.233l-1.328,2.052a3.753,3.753,0,0,0,6.3,4.079l.089-.125,8.665-10.929C249.87,3769.049,244.362,3771.168,239.856,3777.233Z"/></g></svg>