<svg xmlns="http://www.w3.org/2000/svg" xmlns:xlink="http://www.w3.org/1999/xlink" width="165.71" height="27.085" viewBox="0 0 165.71 27.085"><defs><style>.a{fill:url(#a);}.b{fill:#6a2a83;}</style><linearGradient id="a" y1="0.5" x2="1" y2="0.5" gradientUnits="objectBoundingBox"><stop offset="0" stop-color="#e21982"/><stop offset="0.205" stop-color="#ce1b82"/><stop offset="0.621" stop-color="#9c2282"/><stop offset="1" stop-color="#6a2a83"/></linearGradient></defs><g transform="translate(-73.388 -66.268)"><path class="a" d="M129.238,86.852c0,1.385.011,2.77,0,4.154a2.382,2.382,0,0,1-4.666.638,3.549,3.549,0,0,1-.094-.947c-.007-2.365,0-4.729-.007-7.094a5.175,5.175,0,0,0-1.317-3.63A4.947,4.947,0,0,0,118,78.4a4.881,4.881,0,0,0-3.711,3.744,5.116,5.116,0,0,0,4.445,6.353c.254.022.508.051.763.073a2.384,2.384,0,0,1-.154,4.76,9.954,9.954,0,1,1,9.632-12.206,12.427,12.427,0,0,1,.253,2.21C129.269,84.508,129.238,85.681,129.238,86.852ZM214.8,83.338a12.431,12.431,0,0,0-.253-2.21,9.953,9.953,0,1,0-9.631,12.206,2.384,2.384,0,0,0,.153-4.76c-.254-.023-.508-.052-.763-.073a5.116,5.116,0,0,1-4.445-6.353,4.882,4.882,0,0,1,3.711-3.744,4.946,4.946,0,0,1,5.15,1.569,5.171,5.171,0,0,1,1.317,3.63c.006,2.365,0,4.729.008,7.094a3.549,3.549,0,0,0,.094.947,2.382,2.382,0,0,0,4.666-.638c.014-1.384,0-2.769,0-4.154C214.806,85.681,214.836,84.508,214.8,83.338Zm-21.623-2.3a9.928,9.928,0,0,0-17.151-4.189,9.949,9.949,0,0,0-17.451,6.392q0,1.822,0,3.643c0,1.385-.012,2.77,0,4.155a2.345,2.345,0,0,0,1.78,2.226,2.392,2.392,0,0,0,2.579-.956,2.64,2.64,0,0,0,.416-1.576q-.006-3.451,0-6.9a8.233,8.233,0,0,1,.105-1.463,5.261,5.261,0,0,1,4.747-4.133,5.159,5.159,0,0,1,5.305,3.889c.032.14.053.283.073.425-.018.23-.028.46-.029.693v3.643c0,1.385-.011,2.77,0,4.155a2.346,2.346,0,0,0,1.779,2.226,2.221,2.221,0,0,0,.677.08h0l.077,0a2.4,2.4,0,0,0,1.816-.846,2.525,2.525,0,0,0,.591-1.709c0-2.471.025-4.943-.012-7.415-.005-.307-.028-.615-.06-.924,0-.027.007-.054.012-.081a5.263,5.263,0,0,1,4.748-4.133,5.159,5.159,0,0,1,5.305,3.889,9.987,9.987,0,0,1,.154,2.091c.018,2.215,0,4.432.011,6.647a2.413,2.413,0,0,0,1.634,2.351,2.374,2.374,0,0,0,2.6-.717,2.525,2.525,0,0,0,.591-1.709c0-2.471.024-4.943-.012-7.415A10.8,10.8,0,0,0,193.172,81.035ZM238.65,89.6a2.374,2.374,0,0,0-2.01-1.037,5.163,5.163,0,0,1-5.083-5.417c.087-1.593.015-3.195.018-4.793,0-.183.024-.367.041-.594h.672c1.406,0,2.812.007,4.217-.005a3.232,3.232,0,0,0,.941-.118,2.382,2.382,0,0,0-.773-4.643c-1.47-.01-2.94,0-4.409,0h-.691v-.742c0-1.193.029-2.387-.01-3.579a2.406,2.406,0,0,0-3.981-1.8,2.587,2.587,0,0,0-.837,2.121c.007,4.751,0,9.5.016,14.252a12.294,12.294,0,0,0,.213,2.153,9.87,9.87,0,0,0,9.818,7.936A2.383,2.383,0,0,0,238.65,89.6ZM153.365,73.815a2.381,2.381,0,0,0-1.1,2.167c.016,2.472.005,4.944.005,7.416h0q0,2.365,0,4.731c0,1.023-.036,2.048.022,3.067a2.383,2.383,0,0,0,4.753-.293q.009-7.511,0-15.023c0-.064,0-.128,0-.192A2.4,2.4,0,0,0,153.365,73.815Zm-2.947,7.22a9.95,9.95,0,0,0-19.619,2.2q0,1.822,0,3.643c0,1.385-.012,2.77,0,4.155a2.345,2.345,0,0,0,1.78,2.226,2.392,2.392,0,0,0,2.579-.956,2.647,2.647,0,0,0,.417-1.576q-.008-3.451,0-6.9a8.234,8.234,0,0,1,.105-1.463,5.262,5.262,0,0,1,4.747-4.133,5.159,5.159,0,0,1,5.306,3.889,10.042,10.042,0,0,1,.154,2.091c.017,2.215,0,4.432.01,6.647a2.413,2.413,0,0,0,1.635,2.351,2.373,2.373,0,0,0,2.6-.717,2.525,2.525,0,0,0,.591-1.709c0-2.471.025-4.943-.013-7.415A10.855,10.855,0,0,0,150.418,81.035Zm4.234-14.767a2.4,2.4,0,1,0,2.395,2.395A2.4,2.4,0,0,0,154.652,66.268Zm66.129,15.349a2.2,2.2,0,1,0,2.2,2.2A2.2,2.2,0,0,0,220.781,81.617ZM93.237,68.061a3.94,3.94,0,0,0-3.33-1.793h-.085a3.8,3.8,0,0,0-3.375,1.791L74.025,87.26a3.943,3.943,0,0,0,2.906,6.064,4.023,4.023,0,0,0,.415.022,3.918,3.918,0,0,0,3.3-1.8l.094-.131,9.1-11.482,9.2,11.612a3.943,3.943,0,0,0,6.621-4.284Z"/><circle class="b" cx="2.203" cy="2.203" r="2.203" transform="translate(87.576 88.939)"/><path class="a" d="M75.419,87.515,74.025,89.67a3.943,3.943,0,0,0,2.906,6.064,4.023,4.023,0,0,0,.415.022,3.918,3.918,0,0,0,3.3-1.8l.094-.131,9.1-11.482C85.939,78.916,80.154,81.143,75.419,87.515Z" transform="translate(0 -2.41)"/></g></svg>