<svg xmlns="http://www.w3.org/2000/svg" width="96" height="96" viewBox="0 0 96 96" version="1.1">
	<path d="M 41.947 9.580 C 38.717 11.660, 0.735 70.444, 0.181 74.221 C -0.356 77.879, 1.633 82.566, 4.770 85.034 C 7.473 87.160, 13.862 87.679, 16.954 86.025 C 17.956 85.488, 25.193 76.938, 33.036 67.025 C 40.878 57.111, 47.633 49, 48.047 49 C 48.460 49, 55.179 57.103, 62.978 67.007 C 70.777 76.911, 77.993 85.461, 79.013 86.007 C 81.440 87.306, 87.612 87.278, 90.080 85.957 C 93.036 84.375, 97 77.441, 97 73.853 C 97 72.101, 96.718 70.948, 96.374 71.292 C 96.030 71.636, 87.440 58.999, 77.284 43.209 C 67.129 27.419, 57.565 13.213, 56.032 11.641 C 52.544 8.064, 45.828 7.082, 41.947 9.580 M 0.252 75.500 C 0.263 77.700, 0.468 78.482, 0.707 77.238 C 0.946 75.994, 0.937 74.194, 0.687 73.238 C 0.437 72.282, 0.241 73.300, 0.252 75.500 M 44.695 75.087 C 40.804 77.403, 40.636 83.722, 44.400 86.235 C 48.207 88.777, 54 85.535, 54 80.862 C 54 76.023, 48.675 72.718, 44.695 75.087" stroke="none" fill="black" fill-rule="evenodd"/>
</svg>